<svg width="420" height="420" viewBox="0 0 420 420" fill="none" xmlns="http://www.w3.org/2000/svg" role="img" aria-labelledby="title desc">
  <title id="title">Jestore</title>
  <desc id="desc">Logo verde de Jestore con hexagono, hoja y nodos tecnologicos</desc>
  <defs>
    <linearGradient id="hexGradient" x1="97" y1="52" x2="321" y2="365" gradientUnits="userSpaceOnUse">
      <stop stop-color="#0c5a3d"/>
      <stop offset="0.54" stop-color="#168247"/>
      <stop offset="1" stop-color="#053926"/>
    </linearGradient>
    <linearGradient id="leafGradient" x1="213" y1="128" x2="295" y2="310" gradientUnits="userSpaceOnUse">
      <stop stop-color="#2eb84f"/>
      <stop offset="1" stop-color="#0f6d38"/>
    </linearGradient>
    <filter id="shadow" x="41" y="31" width="339" height="359" filterUnits="userSpaceOnUse" color-interpolation-filters="sRGB">
      <feDropShadow dx="10" dy="14" stdDeviation="12" flood-color="#06140e" flood-opacity="0.32"/>
    </filter>
  </defs>
  <rect width="420" height="420" rx="36" fill="#f6f8f7"/>
  <g opacity="0.16" stroke="#144d39" stroke-width="3">
    <path d="M34 92h84l28 28h62"/>
    <path d="M27 133h72l24 24h44"/>
    <path d="M301 75h58l26 26"/>
    <path d="M291 326h72l27-27"/>
    <circle cx="120" cy="92" r="7"/>
    <circle cx="359" cy="75" r="7"/>
    <circle cx="364" cy="326" r="7"/>
  </g>
  <g filter="url(#shadow)">
    <path d="M210 48L346 126V283L210 362L74 283V126L210 48Z" fill="url(#hexGradient)"/>
    <path d="M210 83L315 144V265L210 326L105 265V144L210 83Z" fill="#f7faf8"/>
    <path d="M210 99L301 151V257L210 310L119 257V151L210 99ZM210 76L99 140V269L210 333L321 269V140L210 76Z" fill="#062b1f"/>
    <path d="M250 148C217 166 194 188 184 218C176 240 176 263 177 281L219 305L285 267V159C285 148 274 141 264 146L250 148Z" fill="url(#leafGradient)"/>
    <path d="M215 283C223 237 241 207 272 182" stroke="#053322" stroke-width="8" stroke-linecap="round"/>
    <path d="M142 197L184 151L208 151" stroke="#178a43" stroke-width="15" stroke-linecap="round" stroke-linejoin="round"/>
    <circle cx="137" cy="203" r="25" fill="#168247"/>
    <circle cx="137" cy="203" r="11" fill="#f7faf8"/>
    <circle cx="208" cy="151" r="25" fill="#168247"/>
    <circle cx="208" cy="151" r="11" fill="#f7faf8"/>
  </g>
  <g>
    <path d="M88 371h22c9 0 14-4 14-13v-38h21v40c0 20-13 31-34 31H88v-20Z" fill="#075237"/>
    <path d="M156 320h77v19h-55v8h49v17h-49v8h57v19h-79v-71Z" fill="#075237"/>
    <path d="M244 370h62c4 0 6-1 6-4s-2-4-6-4h-36c-17 0-27-8-27-22 0-13 10-20 28-20h59v19h-56c-4 0-6 1-6 4s2 4 6 4h36c18 0 27 8 27 22s-10 22-29 22h-64v-21Z" fill="#075237"/>
  </g>
</svg>
